<?xml version="1.0" standalone="no"?>
<!DOCTYPE svg PUBLIC "-//W3C//DTD SVG 20010904//EN"
 "http://www.w3.org/TR/2001/REC-SVG-20010904/DTD/svg10.dtd">
<svg version="1.0" xmlns="http://www.w3.org/2000/svg"
 width="207.000000pt" height="192.000000pt" viewBox="0 0 207.000000 192.000000"
 preserveAspectRatio="xMidYMid meet">
<metadata>
Created by potrace 1.10, written by Peter Selinger 2001-2011
</metadata>
<g transform="translate(0.000000,192.000000) scale(0.100000,-0.100000)"
fill="#000000" stroke="none">
<path d="M1000 1906 c0 -8 -10 -18 -22 -22 -12 -3 -26 -11 -32 -16 -6 -5 -108
-72 -226 -151 -118 -78 -217 -144 -220 -147 -3 -3 -23 -17 -45 -30 -22 -13
-42 -27 -45 -30 -3 -3 -23 -17 -45 -30 -22 -13 -42 -27 -45 -30 -3 -3 -23 -17
-45 -30 -22 -13 -42 -27 -45 -30 -3 -3 -23 -17 -45 -30 -22 -13 -45 -29 -52
-35 -6 -5 -34 -26 -61 -45 l-50 -35 -7 -150 c-4 -82 -6 -353 -4 -602 3 -354 7
-455 17 -465 19 -19 324 -24 1214 -18 611 4 770 8 780 18 10 10 14 115 16 485
2 260 1 531 -3 602 l-7 130 -50 35 c-27 19 -55 40 -61 45 -12 10 -385 261
-415 280 -9 6 -33 22 -53 38 -20 15 -40 27 -44 27 -4 0 -24 14 -45 30 -21 17
-41 30 -45 30 -4 0 -24 14 -45 30 -21 17 -41 30 -45 30 -4 0 -24 12 -44 28
-45 34 -70 49 -98 62 -13 5 -23 16 -23 25 0 10 -10 15 -30 15 -19 0 -30 -5
-30 -14z m60 -72 c14 -10 30 -22 35 -28 6 -7 28 -23 50 -36 22 -13 42 -26 45
-30 5 -5 288 -196 318 -215 9 -5 33 -22 53 -37 20 -16 40 -28 44 -28 4 0 24
-13 45 -30 21 -16 41 -30 45 -30 4 0 24 -13 45 -30 21 -16 41 -30 45 -30 4 0
24 -13 45 -30 21 -16 40 -30 43 -30 3 0 26 -14 51 -31 42 -28 61 -59 36 -59
-9 0 -161 -89 -170 -100 -3 -3 -23 -17 -45 -30 -22 -13 -44 -28 -50 -33 -17
-13 -296 -197 -301 -197 -2 0 -24 -14 -49 -32 -35 -25 -45 -38 -45 -60 0 -18
5 -28 15 -28 7 0 84 47 170 105 85 58 158 105 161 105 4 0 23 14 44 30 21 17
41 30 45 30 4 0 24 14 45 30 21 17 41 30 45 30 3 0 32 20 63 43 60 46 102 71
103 62 0 -3 0 -238 1 -522 0 -347 -3 -518 -10 -521 -6 -2 -28 12 -49 31 -34
31 -259 201 -313 237 -12 8 -28 20 -34 26 -6 6 -36 28 -66 49 -30 21 -63 47
-75 57 -11 11 -27 23 -37 26 -9 4 -31 19 -50 34 -18 15 -91 70 -162 123 -179
132 -159 134 -402 -46 -104 -77 -204 -152 -222 -167 -19 -15 -41 -30 -50 -34
-10 -3 -26 -15 -37 -26 -12 -10 -45 -36 -75 -57 -30 -21 -59 -42 -65 -47 -48
-40 -59 -48 -64 -48 -3 0 -20 -13 -37 -28 -18 -15 -42 -34 -54 -42 -13 -8 -43
-32 -68 -53 -24 -21 -49 -36 -54 -35 -6 2 -9 200 -9 523 0 420 3 519 13 517
12 -3 87 -50 98 -62 3 -3 82 -56 175 -117 94 -62 175 -116 180 -121 6 -4 28
-19 50 -32 22 -13 42 -26 45 -29 3 -4 27 -21 53 -38 47 -33 77 -42 77 -24 0 5
3 16 6 24 3 9 -13 27 -45 51 -28 20 -54 36 -57 36 -3 0 -23 14 -44 30 -21 17
-41 30 -45 30 -4 0 -24 13 -45 30 -21 16 -41 30 -45 30 -4 0 -24 14 -45 30
-21 16 -40 30 -43 30 -5 0 -189 119 -212 137 -6 4 -28 18 -50 30 -22 12 -41
26 -43 31 -3 9 80 72 95 72 3 0 22 14 43 30 21 17 41 30 45 30 4 0 24 14 45
30 21 17 41 30 45 30 4 0 24 14 45 30 21 17 41 30 45 30 4 0 24 14 45 30 21
17 41 30 45 30 4 0 24 14 45 30 21 17 41 30 45 30 4 0 24 14 45 30 21 17 41
30 45 30 4 0 24 12 44 28 20 15 44 32 53 37 43 26 189 129 194 136 8 13 27 11
54 -7z m126 -1218 c67 -50 132 -98 144 -106 12 -8 28 -20 34 -26 6 -6 36 -28
66 -49 30 -21 61 -45 69 -53 8 -7 33 -25 55 -39 23 -14 48 -32 56 -39 25 -23
259 -194 265 -194 14 0 64 -44 59 -52 -7 -11 -1811 -10 -1818 1 -4 5 11 20 31
32 46 28 152 103 173 123 8 7 33 25 56 39 22 14 47 32 55 39 8 8 39 32 69 53
30 21 59 42 65 47 26 22 424 314 441 324 25 15 31 11 180 -100z"/>
<path d="M334 1185 c-8 -7 -9 -17 -3 -32 l8 -23 685 0 685 0 12 21 c7 13 7 25
2 30 -14 14 -1372 17 -1389 4z"/>
<path d="M710 974 c-5 -5 -7 -20 -3 -32 l5 -22 313 0 c310 0 314 0 320 21 4
12 3 25 -3 31 -14 14 -621 16 -632 2z"/>
</g>
</svg>
