<?xml version="1.0" standalone="no"?>
<!DOCTYPE svg PUBLIC "-//W3C//DTD SVG 20010904//EN"
 "http://www.w3.org/TR/2001/REC-SVG-20010904/DTD/svg10.dtd">
<svg version="1.0" xmlns="http://www.w3.org/2000/svg"
 width="74.000000pt" height="73.000000pt" viewBox="0 0 74.000000 73.000000"
 preserveAspectRatio="xMidYMid meet">
<metadata>
Created by potrace 1.12, written by Peter Selinger 2001-2015
</metadata>
<g transform="translate(0.000000,73.000000) scale(0.100000,-0.100000)"
fill="#000000" stroke="none">
<path d="M377 696 c6 -39 3 -42 -59 -51 -43 -7 -48 -5 -48 12 0 20 -18 43 -33
43 -5 0 -1 -7 7 -16 26 -25 18 -50 -24 -78 l-39 -26 -26 26 c-15 14 -28 24
-31 21 -3 -3 6 -17 21 -31 l26 -26 -27 -40 c-20 -29 -32 -39 -43 -34 -9 4 -27
8 -41 11 -21 3 -20 2 6 -11 42 -19 44 -24 32 -78 -11 -46 -11 -46 -48 -41 -24
4 -40 1 -45 -7 -6 -10 -2 -11 16 -7 47 12 65 -1 75 -54 9 -44 9 -49 -7 -49 -9
0 -27 -9 -40 -20 -28 -22 -14 -27 15 -5 32 24 49 18 74 -26 l24 -41 -21 -15
c-12 -8 -21 -24 -21 -36 1 -22 1 -22 12 -2 24 41 39 44 80 17 28 -18 37 -30
32 -41 -4 -9 -9 -27 -11 -41 -4 -20 -1 -18 14 10 10 19 21 34 26 33 4 -1 25
-4 47 -8 32 -5 40 -11 41 -28 0 -12 4 -31 9 -42 7 -16 9 -12 8 17 -1 21 0 39
2 41 3 3 25 7 50 11 44 6 46 5 57 -24 6 -16 16 -30 23 -30 7 0 6 8 -4 22 -23
33 -20 43 22 70 l38 26 28 -25 c16 -13 31 -22 33 -19 3 3 -7 15 -22 28 l-27
23 28 43 c17 27 33 41 42 37 37 -14 62 -16 62 -6 0 6 -10 11 -22 11 -43 0 -50
12 -37 63 11 44 13 47 45 47 18 0 35 4 39 9 3 6 -8 8 -29 4 -39 -6 -42 -3 -51
60 -6 38 -4 47 7 47 8 0 23 9 33 20 10 11 13 20 8 20 -6 0 -16 -7 -23 -15 -21
-25 -44 -17 -66 23 -22 37 -22 38 -3 61 28 34 23 48 -6 17 l-25 -27 -40 27
c-26 17 -39 32 -35 42 14 37 16 62 6 62 -6 0 -11 -10 -11 -23 0 -37 -15 -45
-65 -33 -42 10 -45 13 -45 43 0 17 -4 34 -9 38 -6 3 -8 -8 -4 -29z m128 -95
c165 -92 189 -316 48 -440 -177 -157 -446 -33 -447 206 0 203 222 334 399 234z"/>
<path d="M380 403 c-28 -25 -33 -36 -33 -73 0 -36 6 -48 32 -72 35 -31 68 -35
111 -13 85 44 60 169 -36 182 -36 4 -46 1 -74 -24z m100 2 c54 -28 66 -86 28
-129 -35 -40 -78 -43 -116 -11 -53 45 -38 124 28 148 24 9 29 8 60 -8z"/>
</g>
</svg>
