<?xml version="1.0" standalone="no"?>
<!DOCTYPE svg PUBLIC "-//W3C//DTD SVG 20010904//EN"
 "http://www.w3.org/TR/2001/REC-SVG-20010904/DTD/svg10.dtd">
<svg version="1.0" xmlns="http://www.w3.org/2000/svg"
 width="228.000000pt" height="174.000000pt" viewBox="0 0 228.000000 174.000000"
 preserveAspectRatio="xMidYMid meet">
<metadata>
Created by potrace 1.10, written by Peter Selinger 2001-2011
</metadata>
<g transform="translate(0.000000,174.000000) scale(0.100000,-0.100000)"
fill="#000000" stroke="none">
<path d="M170 1725 c0 -9 -11 -20 -25 -25 -56 -21 -56 -18 -55 -787 l1 -707
-23 -9 c-49 -18 -68 -47 -68 -105 0 -44 4 -57 22 -73 22 -18 62 -18 1105 -19
l1082 0 35 22 c33 21 35 27 36 76 0 38 -4 52 -14 52 -7 0 -20 7 -27 17 -8 9
-27 21 -42 28 l-28 12 1 706 c1 768 1 763 -54 789 -15 6 -26 17 -26 25 0 11
-164 13 -960 13 -854 0 -960 -2 -960 -15z m1919 -71 l31 -26 0 -713 c0 -557
-3 -714 -12 -717 -7 -3 -194 -3 -415 -1 l-402 4 -32 -30 c-31 -30 -34 -31
-128 -31 -91 0 -99 2 -128 27 l-32 28 -413 0 -413 0 -3 717 -2 716 31 26 31
26 928 0 928 0 31 -26z m-1113 -1531 c11 -16 31 -18 152 -18 119 0 143 3 159
17 18 17 55 18 471 18 294 0 453 -4 457 -10 10 -17 9 -70 -2 -81 -6 -6 -386
-10 -1084 -10 -1005 0 -1074 1 -1086 17 -11 15 -9 53 4 77 2 4 209 7 460 7
423 0 457 -1 469 -17z"/>
<path d="M205 1588 c-3 -7 -4 -310 -3 -673 l3 -660 925 0 925 0 0 670 0 670
-923 3 c-733 2 -924 0 -927 -10z m1813 -665 c2 -550 0 -623 -13 -623 -20 0
-1730 0 -1750 0 -13 0 -15 75 -15 618 0 340 3 622 7 625 3 4 403 6 887 5 l881
-3 3 -622z"/>
<path d="M856 1024 c-34 -23 -37 -29 -32 -58 10 -48 49 -69 86 -46 10 6 15 27
15 67 0 69 -12 76 -69 37z"/>
<path d="M1333 1035 c-5 -16 1 -102 8 -110 2 -2 15 -6 29 -10 33 -8 58 12 66
51 5 29 2 35 -32 58 -44 30 -62 33 -71 11z"/>
<path d="M794 765 c-7 -18 3 -35 22 -35 8 0 33 -14 56 -31 48 -34 74 -33 116
6 35 32 50 31 91 -5 42 -38 60 -38 102 0 41 36 57 37 90 6 42 -39 65 -41 112
-9 23 15 51 30 62 33 11 4 20 14 20 25 0 30 -68 34 -92 6 -22 -26 -53 -27 -83
-1 -14 12 -37 20 -60 20 -23 0 -46 -8 -60 -20 -13 -11 -31 -20 -40 -20 -9 0
-27 9 -40 20 -14 12 -37 20 -60 20 -23 0 -46 -8 -60 -20 -13 -11 -33 -20 -44
-20 -12 0 -29 9 -39 20 -20 24 -85 28 -93 5z"/>
</g>
</svg>
