<?xml version="1.0" encoding="utf-8"?>
<!-- Generator: Adobe Illustrator 17.0.1, SVG Export Plug-In . SVG Version: 6.00 Build 0)  -->
<!DOCTYPE svg PUBLIC "-//W3C//DTD SVG 1.1//EN" "http://www.w3.org/Graphics/SVG/1.1/DTD/svg11.dtd">
<svg version="1.1" id="Слой_1" xmlns="http://www.w3.org/2000/svg" xmlns:xlink="http://www.w3.org/1999/xlink" x="0px" y="0px"
	 width="40.125px" height="36.25px" viewBox="0 0 40.125 36.25" enable-background="new 0 0 40.125 36.25" xml:space="preserve">
<g>
	<defs>
		<rect id="SVGID_1_" x="-19.375" y="-19" width="75" height="75"/>
	</defs>
	<clipPath id="SVGID_2_">
		<use xlink:href="#SVGID_1_"  overflow="visible"/>
	</clipPath>
	<path clip-path="url(#SVGID_2_)" d="M18,18.75h21.367c0.345,0,0.625-0.28,0.625-0.625c0-0.345-0.28-0.625-0.625-0.625H18
		c-0.345,0-0.625,0.28-0.625,0.625C17.375,18.47,17.655,18.75,18,18.75"/>
	<path clip-path="url(#SVGID_2_)" d="M19.094,3.945H0.883c-0.345,0-0.625,0.28-0.625,0.625c0,0.345,0.28,0.625,0.625,0.625h18.211
		l0.092,0.383c0.466,1.946,2.19,3.305,4.189,3.305c2.377,0,4.312-1.935,4.312-4.313c0-2.377-1.935-4.312-4.312-4.312
		c-1.999,0-3.722,1.358-4.189,3.304L19.094,3.945z M23.375,1.508c1.688,0,3.062,1.374,3.062,3.062c0,1.689-1.374,3.063-3.062,3.063
		c-1.688,0-3.062-1.374-3.062-3.063C20.313,2.882,21.687,1.508,23.375,1.508"/>
	<path clip-path="url(#SVGID_2_)" d="M39.367,32.305c0.345,0,0.625-0.28,0.625-0.625c0-0.345-0.28-0.625-0.625-0.625H28.563
		c-0.345,0-0.627,0.28-0.627,0.625c0,0.345,0.282,0.625,0.627,0.625H39.367z"/>
	<path clip-path="url(#SVGID_2_)" d="M20.375,27.367c-1.999,0-3.722,1.36-4.189,3.309l-0.093,0.382H0.883
		c-0.345,0-0.625,0.281-0.625,0.625c0,0.345,0.28,0.625,0.625,0.625h15.209l0.093,0.382c0.472,1.945,2.195,3.302,4.19,3.302
		c2.377,0,4.312-1.935,4.312-4.313C24.687,29.302,22.752,27.367,20.375,27.367 M20.375,34.742c-1.685,0-3.058-1.372-3.062-3.058
		c0-1.695,1.374-3.067,3.062-3.067c1.688,0,3.062,1.374,3.062,3.062C23.437,33.368,22.063,34.742,20.375,34.742"/>
	<path clip-path="url(#SVGID_2_)" d="M0.258,18.125c0,0.345,0.28,0.625,0.625,0.625h4.71l0.093,0.383
		c0.467,1.946,2.19,3.305,4.189,3.305c2.377,0,4.312-1.934,4.312-4.313c0-2.378-1.935-4.313-4.312-4.313
		c-1.996,0-3.718,1.359-4.19,3.306L5.593,17.5h-4.71C0.538,17.5,0.258,17.78,0.258,18.125 M9.875,15.062
		c1.688,0,3.062,1.374,3.062,3.063c0,1.689-1.374,3.063-3.062,3.063c-1.688,0-3.062-1.374-3.062-3.063
		C6.813,16.436,8.187,15.062,9.875,15.062"/>
	<path clip-path="url(#SVGID_2_)" d="M39.367,3.945h-7.804c-0.345,0-0.627,0.28-0.627,0.625c0,0.345,0.282,0.625,0.627,0.625h7.804
		c0.345,0,0.625-0.28,0.625-0.625C39.992,4.225,39.712,3.945,39.367,3.945"/>
</g>
</svg>
