<?xml version="1.0" standalone="no"?>
<!DOCTYPE svg PUBLIC "-//W3C//DTD SVG 20010904//EN"
 "http://www.w3.org/TR/2001/REC-SVG-20010904/DTD/svg10.dtd">
<svg version="1.0" xmlns="http://www.w3.org/2000/svg"
 width="62.000000pt" height="62.000000pt" viewBox="0 0 62.000000 62.000000"
 preserveAspectRatio="xMidYMid meet">
<metadata>
Created by potrace 1.12, written by Peter Selinger 2001-2015
</metadata>
<g transform="translate(0.000000,62.000000) scale(0.100000,-0.100000)"
fill="#000000" stroke="none">
<path d="M264 612 c-6 -4 -14 -19 -18 -34 -10 -42 -42 -55 -83 -32 l-34 18
-36 -37 -37 -36 18 -34 c23 -41 10 -73 -32 -83 -34 -9 -42 -20 -42 -64 0 -44
8 -55 42 -64 42 -10 55 -42 32 -83 l-18 -34 37 -36 36 -37 34 18 c41 23 73 10
83 -32 9 -34 20 -42 64 -42 44 0 55 8 64 42 10 42 42 55 83 32 l34 -18 36 37
37 36 -18 34 c-23 41 -10 73 32 83 34 9 42 20 42 64 0 44 -8 55 -42 64 -42 10
-55 42 -32 83 l18 34 -37 36 -36 37 -34 -18 c-41 -23 -73 -10 -83 32 -9 34
-20 42 -64 42 -19 0 -40 -4 -46 -8z m96 -46 c15 -45 63 -61 110 -36 26 14 74
-34 60 -60 -25 -47 -9 -95 36 -110 31 -10 34 -15 34 -50 0 -32 -4 -39 -24 -44
-50 -12 -72 -67 -46 -116 14 -26 -34 -74 -60 -60 -49 26 -104 4 -116 -46 -5
-20 -12 -24 -44 -24 -35 0 -40 3 -50 34 -15 45 -63 61 -110 36 -26 -14 -74 34
-60 60 25 47 9 95 -36 110 -31 11 -34 15 -34 50 0 35 3 39 34 50 45 15 61 63
36 110 -14 26 34 74 60 60 49 -26 104 -4 116 46 5 20 12 24 44 24 35 0 40 -3
50 -34z"/>
<path d="M249 371 c-39 -40 -39 -82 0 -122 20 -20 39 -29 61 -29 43 0 90 47
90 90 0 43 -47 90 -90 90 -22 0 -41 -9 -61 -29z m111 -11 c11 -11 20 -33 20
-50 0 -61 -77 -93 -120 -50 -43 43 -11 120 50 120 17 0 39 -9 50 -20z"/>
</g>
</svg>
