<?xml version="1.0" standalone="no"?>
<!DOCTYPE svg PUBLIC "-//W3C//DTD SVG 20010904//EN"
 "http://www.w3.org/TR/2001/REC-SVG-20010904/DTD/svg10.dtd">
<svg version="1.0" xmlns="http://www.w3.org/2000/svg"
 width="54.000000pt" height="62.000000pt" viewBox="0 0 54.000000 62.000000"
 preserveAspectRatio="xMidYMid meet">
<metadata>
Created by potrace 1.12, written by Peter Selinger 2001-2015
</metadata>
<g transform="translate(0.000000,62.000000) scale(0.100000,-0.100000)"
fill="#000000" stroke="none">
<path d="M165 605 c-38 -7 -92 -16 -118 -20 l-49 -6 4 -172 c3 -163 5 -175 30
-222 33 -63 103 -129 171 -161 64 -30 70 -30 134 0 68 32 138 98 171 161 25
47 27 59 30 222 l4 172 -49 6 c-26 4 -84 13 -128 21 -92 16 -106 16 -200 -1z
m95 -38 c0 -30 -13 -46 -104 -135 -106 -103 -136 -121 -136 -80 0 15 36 59
112 135 62 62 116 113 120 113 5 0 8 -15 8 -33z m171 11 l89 -12 0 -118 0
-118 -120 0 -120 0 0 136 0 137 31 -7 c17 -3 71 -11 120 -18z m-171 -413 c0
-80 -2 -145 -5 -145 -20 0 -113 58 -146 91 -45 45 -89 129 -89 172 l0 27 120
0 120 0 0 -145z m260 127 c0 -9 -54 -71 -120 -137 l-120 -120 0 40 c0 37 7 47
97 137 66 67 105 98 120 98 15 0 23 -6 23 -18z"/>
</g>
</svg>
