<?xml version="1.0" encoding="utf-8"?>
<!-- Generator: Adobe Illustrator 17.0.1, SVG Export Plug-In . SVG Version: 6.00 Build 0)  -->
<!DOCTYPE svg PUBLIC "-//W3C//DTD SVG 1.1//EN" "http://www.w3.org/Graphics/SVG/1.1/DTD/svg11.dtd">
<svg version="1.1" id="Слой_1" xmlns="http://www.w3.org/2000/svg" xmlns:xlink="http://www.w3.org/1999/xlink" x="0px" y="0px"
	 width="63.5px" height="48px" viewBox="0 0 63.5 48" enable-background="new 0 0 63.5 48" xml:space="preserve">
<g>
	<defs>
		<rect id="SVGID_1_" x="-5.667" y="-17.625" width="75" height="75"/>
	</defs>
	<clipPath id="SVGID_2_">
		<use xlink:href="#SVGID_1_"  overflow="visible"/>
	</clipPath>
	<path clip-path="url(#SVGID_2_)" d="M7.224,4.926h49.218v34.637H7.224V4.926z M6.521,40.969h50.624
		c0.391,0,0.704-0.317,0.704-0.703V4.223c0-0.391-0.313-0.703-0.704-0.703H6.521c-0.391,0-0.704,0.312-0.704,0.703v36.043
		C5.817,40.652,6.13,40.969,6.521,40.969"/>
	<path clip-path="url(#SVGID_2_)" d="M61.364,46.594H2.302c-0.387,0-0.703-0.317-0.703-0.703v-1.407
		c0-0.386,0.316-0.703,0.703-0.703h24.73c0.524,1.406,2.637,1.406,3.395,1.406h2.812c0.758,0,2.871,0,3.395-1.406h24.73
		c0.387,0,0.703,0.317,0.703,0.703v1.407C62.067,46.277,61.751,46.594,61.364,46.594 M6.521,1.406h50.624
		c1.165,0,2.11,0.946,2.11,2.11v38.859H36.052c-0.391,0-0.703,0.316-0.703,0.703c0,0.176,0,0.703-2.11,0.703h-2.812
		c-2.11,0-2.11-0.527-2.11-0.703c0-0.387-0.312-0.703-0.703-0.703H4.411V3.516C4.411,2.352,5.356,1.406,6.521,1.406 M61.364,42.375
		h-0.703V3.516C60.661,1.574,59.083,0,57.145,0H6.521C4.579,0,3.005,1.578,3.005,3.516v38.859H2.302c-1.164,0-2.11,0.945-2.11,2.109
		v1.407c0,1.164,0.946,2.109,2.11,2.109h59.062c1.164,0,2.11-0.945,2.11-2.109v-1.407C63.474,43.32,62.528,42.375,61.364,42.375"/>
	<path clip-path="url(#SVGID_2_)" d="M24.802,22.609c0.777,0,1.406-0.945,1.406-2.109c0-0.664-0.207-1.246-0.527-1.633l-2.239,1.117
		c-0.027,0.168-0.047,0.336-0.047,0.516C23.395,21.664,24.024,22.609,24.802,22.609"/>
	<path clip-path="url(#SVGID_2_)" d="M38.864,22.609c0.778,0,1.407-0.945,1.407-2.109c0-0.18-0.02-0.348-0.047-0.516l-2.239-1.117
		c-0.32,0.387-0.527,0.969-0.527,1.633C37.458,21.664,38.087,22.609,38.864,22.609"/>
	<path clip-path="url(#SVGID_2_)" d="M40.271,26.125c-0.997,0-1.52,0.527-1.903,0.91c-0.344,0.344-0.515,0.496-0.91,0.496
		c-0.395,0-0.566-0.152-0.91-0.496c-0.383-0.383-0.906-0.91-1.903-0.91c-0.996,0-1.519,0.527-1.902,0.91
		c-0.344,0.344-0.515,0.496-0.91,0.496c-0.395,0-0.566-0.152-0.91-0.496c-0.383-0.383-0.906-0.91-1.902-0.91
		c-0.997,0-1.52,0.527-1.903,0.91c-0.344,0.344-0.515,0.496-0.91,0.496c-0.395,0-0.566-0.152-0.91-0.496
		c-0.383-0.383-0.906-0.91-1.903-0.91c-0.39,0-0.703,0.316-0.703,0.703s0.313,0.703,0.703,0.703c0.395,0,0.567,0.153,0.911,0.496
		c0.382,0.383,0.91,0.91,1.902,0.91c0.996,0,1.52-0.527,1.902-0.91c0.344-0.343,0.516-0.496,0.911-0.496
		c0.394,0,0.566,0.153,0.91,0.496c0.382,0.383,0.91,0.91,1.902,0.91c0.996,0,1.52-0.527,1.902-0.91
		c0.344-0.343,0.516-0.496,0.91-0.496c0.395,0,0.567,0.153,0.911,0.496c0.382,0.383,0.91,0.91,1.902,0.91
		c0.996,0,1.52-0.527,1.902-0.91c0.344-0.343,0.516-0.496,0.911-0.496c0.39,0,0.703-0.316,0.703-0.703
		C40.974,26.437,40.661,26.125,40.271,26.125"/>
</g>
</svg>
