<?xml version="1.0" encoding="utf-8"?>
<!-- Generator: Adobe Illustrator 17.0.1, SVG Export Plug-In . SVG Version: 6.00 Build 0)  -->
<!DOCTYPE svg PUBLIC "-//W3C//DTD SVG 1.1//EN" "http://www.w3.org/Graphics/SVG/1.1/DTD/svg11.dtd">
<svg version="1.1" id="Слой_1" xmlns="http://www.w3.org/2000/svg" xmlns:xlink="http://www.w3.org/1999/xlink" x="0px" y="0px"
	 width="75px" height="75px" viewBox="0 0 75 75" enable-background="new 0 0 75 75" xml:space="preserve">
<path d="M72.137,42.117l-3.059,0.735c-3.09,0.746-5.375,2.543-6.418,5.066c-1.043,2.527-0.703,5.406,0.949,8.121l1.649,2.684
	c-1.883,2.453-4.078,4.644-6.535,6.527l-2.684-1.641c-1.644-1.004-3.41-1.539-5.113-1.539c-3.875,0-7.047,2.746-8.074,7.004
	l-0.739,3.059c-3.051,0.398-6.179,0.398-9.234,0l-0.738-3.059c-1.028-4.258-4.2-7.004-8.075-7.004c-1.699,0-3.464,0.535-5.113,1.539
	L16.27,65.25c-2.454-1.883-4.653-4.07-6.528-6.527l1.633-2.684c1.664-2.715,2-5.594,0.957-8.121
	c-1.047-2.523-3.324-4.32-6.414-5.066l-3.063-0.735c-0.203-1.531-0.296-3.074-0.296-4.621c0-1.535,0.093-3.09,0.296-4.613
	l3.063-0.738c3.09-0.747,5.367-2.543,6.414-5.067c1.043-2.523,0.707-5.41-0.957-8.117L9.75,16.277
	c1.875-2.457,4.074-4.652,6.527-6.535l2.684,1.641c1.648,1.012,3.414,1.547,5.113,1.547c3.875,0,7.043-2.754,8.074-7.004
	l0.739-3.059c3.051-0.402,6.179-0.402,9.234,0l0.738,3.059c1.028,4.254,4.2,7.004,8.082,7.004c1.696,0,3.457-0.532,5.106-1.547
	l2.683-1.641c2.458,1.883,4.653,4.078,6.536,6.535l-1.649,2.684c-1.656,2.707-1.992,5.594-0.949,8.117
	c1.043,2.524,3.328,4.32,6.418,5.067l3.059,0.738c0.199,1.523,0.308,3.078,0.308,4.613C72.445,39.043,72.332,40.586,72.137,42.117z
	 M74.547,31.641c-0.078-0.516-0.461-0.926-0.965-1.051l-3.906-0.942c-2.266-0.543-3.922-1.804-4.645-3.554
	c-0.73-1.75-0.457-3.813,0.77-5.805l2.094-3.422c0.269-0.437,0.242-1.004-0.063-1.422c-2.316-3.183-5.098-5.968-8.285-8.285
	c-0.414-0.305-0.981-0.328-1.418-0.062l-3.418,2.093c-1.246,0.762-2.551,1.161-3.781,1.161c-2.692,0-4.832-1.93-5.586-5.036
	L44.41,1.41c-0.125-0.5-0.543-0.887-1.051-0.961c-3.859-0.605-7.851-0.605-11.711,0c-0.511,0.078-0.925,0.461-1.043,0.961
	l-0.941,3.906c-0.75,3.106-2.894,5.036-5.586,5.036c-1.23,0-2.535-0.399-3.781-1.161l-3.422-2.093
	c-0.437-0.266-1.004-0.243-1.418,0.062c-3.184,2.313-5.969,5.098-8.281,8.285c-0.309,0.418-0.328,0.981-0.063,1.422l2.094,3.422
	c1.223,1.992,1.492,4.055,0.766,5.805c-0.723,1.75-2.371,3.011-4.641,3.554l-3.91,0.942c-0.5,0.125-0.887,0.535-0.965,1.051
	C0.156,33.574,0,35.539,0,37.496c0,1.961,0.156,3.93,0.457,5.859c0.078,0.512,0.461,0.926,0.965,1.043l3.91,0.942
	c2.273,0.547,3.922,1.812,4.641,3.558c0.722,1.75,0.457,3.813-0.766,5.805l-2.094,3.418c-0.265,0.441-0.242,1.004,0.063,1.418
	c2.312,3.184,5.097,5.973,8.281,8.285c0.418,0.309,0.981,0.328,1.418,0.055l3.422-2.086c1.246-0.762,2.551-1.168,3.781-1.168
	c2.692,0,4.832,1.937,5.586,5.043l0.941,3.906c0.118,0.504,0.536,0.879,1.043,0.965c1.93,0.297,3.899,0.453,5.86,0.453
	c1.953,0,3.922-0.156,5.851-0.453c0.512-0.086,0.926-0.461,1.051-0.965l0.934-3.906c0.754-3.106,2.894-5.043,5.586-5.043
	c1.23,0,2.535,0.406,3.781,1.168l3.418,2.086c0.441,0.273,1.004,0.254,1.418-0.055c3.187-2.312,5.973-5.097,8.285-8.285
	c0.305-0.414,0.328-0.98,0.063-1.418l-2.094-3.418c-1.223-1.996-1.5-4.055-0.77-5.805c0.719-1.75,2.375-3.011,4.645-3.558
	l3.906-0.942c0.504-0.117,0.887-0.535,0.965-1.043C74.844,41.426,75,39.457,75,37.496C75,35.539,74.844,33.574,74.547,31.641z"/>
<path d="M37.504,16.465c-0.715,0-1.289,0.57-1.289,1.281c0,0.703,0.574,1.277,1.289,1.277c10.184,0,18.473,8.293,18.473,18.477
	c0,0.703,0.57,1.285,1.277,1.285c0.707,0,1.277-0.582,1.277-1.285C58.535,25.902,49.098,16.465,37.504,16.465z"/>
<path d="M50.566,50.562c-3.492,3.489-8.125,5.415-13.062,5.415c-4.942,0-9.578-1.922-13.066-5.415
	c-7.204-7.203-7.204-18.929,0-26.128c0.5-0.5,0.5-1.309,0-1.813c-0.504-0.5-1.313-0.5-1.813,0c-8.199,8.207-8.199,21.547,0,29.754
	c3.98,3.969,9.258,6.156,14.883,6.156c5.617,0,10.898-2.187,14.871-6.156c0.504-0.5,0.504-1.309,0-1.813
	C51.875,50.059,51.066,50.059,50.566,50.562z"/>
<path d="M37.504,28.898c4.738,0,8.598,3.86,8.598,8.598c0,4.746-3.86,8.598-8.598,8.598c-4.746,0-8.598-3.852-8.598-8.598
	C28.906,32.758,32.758,28.898,37.504,28.898z M37.504,48.656c6.148,0,11.156-5.004,11.156-11.16c0-6.152-5.004-11.156-11.156-11.156
	c-6.16,0-11.16,5.004-11.16,11.156C26.344,43.652,31.348,48.656,37.504,48.656z"/>
</svg>
