<?xml version="1.0" standalone="no"?>
<!DOCTYPE svg PUBLIC "-//W3C//DTD SVG 20010904//EN"
 "http://www.w3.org/TR/2001/REC-SVG-20010904/DTD/svg10.dtd">
<svg version="1.0" xmlns="http://www.w3.org/2000/svg"
 width="186.000000pt" height="186.000000pt" viewBox="0 0 186.000000 186.000000"
 preserveAspectRatio="xMidYMid meet">
<metadata>
Created by potrace 1.10, written by Peter Selinger 2001-2011
</metadata>
<g transform="translate(0.000000,186.000000) scale(0.100000,-0.100000)"
fill="#000000" stroke="none">
<path d="M790 1849 c0 -6 -11 -20 -25 -31 -19 -14 -25 -29 -25 -57 0 -20 -7
-46 -15 -57 -8 -10 -15 -26 -15 -34 0 -19 -35 -51 -74 -67 -34 -15 -92 -17
-101 -3 -3 6 -12 10 -20 10 -8 0 -34 14 -58 30 -71 47 -78 45 -190 -66 -90
-88 -118 -140 -86 -159 5 -4 14 -17 20 -28 5 -12 13 -29 17 -37 36 -64 41 -97
20 -146 -17 -39 -49 -74 -68 -74 -8 0 -24 -7 -34 -15 -11 -8 -37 -15 -57 -15
-29 0 -42 -6 -58 -26 -19 -24 -21 -40 -21 -154 0 -114 2 -130 21 -154 16 -20
29 -26 58 -26 20 0 46 -7 57 -15 10 -8 26 -15 34 -15 19 0 51 -35 67 -74 22
-49 17 -82 -19 -146 -4 -8 -12 -25 -17 -37 -6 -11 -15 -24 -20 -28 -39 -23 22
-108 168 -234 26 -22 66 -28 76 -10 4 5 17 14 28 20 12 5 29 13 37 18 17 10
56 26 82 35 35 11 138 -52 138 -84 0 -8 7 -24 15 -34 8 -11 15 -37 15 -57 0
-29 6 -42 26 -58 24 -19 40 -21 154 -21 114 0 130 2 154 21 20 16 26 29 26 58
0 20 7 46 15 57 8 10 15 26 15 34 1 33 103 94 140 83 21 -6 62 -24 80 -34 8
-5 25 -13 37 -18 11 -6 24 -15 28 -20 20 -33 86 7 181 109 88 94 89 100 44
167 -16 24 -30 50 -30 58 0 8 -4 17 -10 20 -14 9 -12 67 3 101 16 39 48 74 67
74 8 0 24 7 34 15 11 8 37 15 57 15 28 0 43 6 57 25 11 14 25 25 31 25 7 0 11
42 11 130 0 88 -4 130 -11 130 -6 0 -20 11 -31 25 -14 19 -29 25 -57 25 -20 0
-46 7 -57 15 -10 8 -26 15 -34 15 -19 0 -51 35 -67 74 -15 34 -17 92 -3 101 6
3 10 12 10 20 0 8 14 34 30 58 47 71 45 79 -67 190 -111 112 -119 114 -190 67
-24 -16 -50 -30 -58 -30 -8 0 -17 -4 -20 -10 -9 -14 -67 -12 -101 3 -39 16
-74 48 -74 67 0 8 -7 24 -15 34 -8 11 -15 36 -15 55 -1 26 -9 46 -30 69 l-30
32 -125 0 c-85 0 -125 -4 -125 -11z m248 -84 c2 -11 10 -34 18 -52 8 -17 14
-38 14 -47 0 -19 12 -36 59 -82 59 -57 183 -59 265 -4 24 17 48 30 53 30 10 0
156 -144 161 -160 2 -5 -10 -30 -27 -55 -34 -50 -47 -119 -37 -189 6 -36 17
-55 52 -91 25 -25 55 -45 66 -45 11 0 34 -6 51 -14 18 -8 41 -16 52 -18 18 -3
20 -12 23 -116 2 -85 0 -113 -10 -116 -7 -1 -29 -9 -48 -16 -19 -7 -48 -15
-63 -17 -44 -8 -111 -82 -124 -137 -13 -59 2 -136 40 -193 15 -24 27 -47 27
-51 0 -12 -151 -162 -163 -162 -5 0 -29 13 -53 30 -82 55 -206 53 -265 -4 -46
-45 -55 -58 -61 -86 -3 -14 -12 -41 -19 -60 -6 -19 -14 -41 -15 -48 -3 -10
-31 -12 -116 -10 -104 3 -113 5 -116 23 -2 11 -10 34 -18 52 -8 17 -14 38 -14
47 0 40 -83 114 -137 122 -57 8 -149 -4 -164 -22 -6 -8 -17 -14 -24 -14 -7 0
-18 -7 -25 -15 -7 -8 -18 -15 -24 -15 -13 0 -158 142 -164 160 -2 5 10 30 27
55 34 50 47 119 37 189 -6 36 -17 55 -52 91 -25 25 -55 45 -66 45 -11 0 -34 6
-51 14 -18 8 -41 16 -52 18 -18 3 -20 12 -23 116 -2 85 0 113 10 116 7 1 29 9
48 16 19 7 48 15 63 17 15 3 48 25 72 49 34 35 45 54 51 90 10 70 -3 139 -37
189 -17 25 -29 50 -27 55 5 16 151 160 161 160 5 0 29 -13 53 -30 82 -55 206
-53 265 4 46 45 55 58 61 86 3 14 12 41 19 60 6 19 14 41 15 48 3 10 31 12
116 10 104 -3 113 -5 116 -23z"/>
<path d="M890 1415 c0 -21 30 -34 96 -41 53 -5 99 -20 144 -45 8 -5 24 -13 35
-18 27 -12 134 -119 146 -146 5 -11 13 -27 18 -35 25 -45 40 -91 45 -144 7
-66 20 -96 41 -96 22 0 20 136 -1 187 -54 126 -102 195 -177 250 -50 37 -77
52 -160 87 -51 21 -187 23 -187 1z"/>
<path d="M538 1268 c-41 -40 -67 -84 -112 -191 -23 -53 -23 -261 0 -314 41
-96 60 -130 104 -186 22 -28 119 -100 160 -119 101 -46 110 -48 230 -48 87 0
129 4 157 16 107 45 151 71 191 112 25 26 27 33 11 49 -14 14 -37 6 -69 -25
-14 -13 -34 -28 -45 -33 -11 -5 -27 -13 -35 -18 -76 -43 -84 -45 -210 -45
-126 0 -134 2 -210 45 -8 5 -24 13 -35 18 -27 12 -134 119 -146 146 -5 11 -13
27 -18 35 -40 72 -45 93 -45 210 0 117 5 138 45 210 5 8 13 24 18 35 5 11 20
31 33 45 31 32 39 55 25 69 -16 16 -23 14 -49 -11z"/>
<path d="M806 1167 c-172 -89 -209 -304 -76 -437 108 -108 272 -108 380 0 135
135 95 353 -81 438 -60 29 -166 29 -223 -1z m204 -52 c7 -8 17 -15 23 -15 15
0 67 -51 67 -66 0 -6 7 -17 15 -24 11 -9 15 -33 15 -90 0 -57 -4 -81 -15 -90
-8 -7 -15 -17 -15 -23 0 -15 -51 -67 -66 -67 -6 0 -17 -7 -24 -15 -9 -11 -33
-15 -90 -15 -57 0 -81 4 -90 15 -7 8 -18 15 -24 15 -15 0 -66 52 -66 67 0 6
-7 16 -15 23 -11 9 -15 33 -15 90 0 57 4 81 15 90 8 7 15 17 15 23 0 15 51 67
66 67 6 0 17 7 24 15 9 11 33 15 90 15 57 0 81 -4 90 -15z"/>
</g>
</svg>
