<?xml version="1.0" encoding="utf-8"?>
<!-- Generator: Adobe Illustrator 17.0.1, SVG Export Plug-In . SVG Version: 6.00 Build 0)  -->
<!DOCTYPE svg PUBLIC "-//W3C//DTD SVG 1.1//EN" "http://www.w3.org/Graphics/SVG/1.1/DTD/svg11.dtd">
<svg version="1.1" id="Слой_1" xmlns="http://www.w3.org/2000/svg" xmlns:xlink="http://www.w3.org/1999/xlink" x="0px" y="0px"
	 width="48.885px" height="47.917px" viewBox="0 0 48.885 47.917" enable-background="new 0 0 48.885 47.917" xml:space="preserve">
<g>
	<defs>
		<rect id="SVGID_1_" x="-12.583" y="-13.5" width="75" height="75"/>
	</defs>
	<clipPath id="SVGID_2_">
		<use xlink:href="#SVGID_1_"  overflow="visible"/>
	</clipPath>
	<path clip-path="url(#SVGID_2_)" d="M33.249,14.832c0.25,0,0.418-0.082,0.582-0.25c0.168-0.168,0.25-0.418,0.25-0.582
		c0-0.25-0.082-0.418-0.25-0.582c-0.332-0.332-0.832-0.332-1.168,0c-0.164,0.164-0.246,0.332-0.246,0.582s0.082,0.418,0.25,0.582
		C32.835,14.75,32.999,14.832,33.249,14.832"/>
	<path clip-path="url(#SVGID_2_)" d="M37.999,19.25c-0.332-0.332-0.832-0.332-1.168,0c-0.164,0.168-0.246,0.332-0.246,0.582
		s0.082,0.418,0.25,0.582c0.168,0.168,0.332,0.25,0.582,0.25s0.418-0.082,0.582-0.25c0.168-0.168,0.25-0.418,0.25-0.582
		C38.249,19.582,38.167,19.418,37.999,19.25"/>
	<path clip-path="url(#SVGID_2_)" d="M14.335,31.75c-0.168,0.168-0.25,0.332-0.25,0.582s0.082,0.418,0.25,0.582
		c0.168,0.168,0.332,0.25,0.582,0.25s0.418-0.082,0.582-0.25c0.168-0.168,0.25-0.418,0.25-0.582c0-0.168-0.082-0.418-0.25-0.582
		C15.167,31.418,14.667,31.418,14.335,31.75"/>
	<path clip-path="url(#SVGID_2_)" d="M19.335,35.918c-0.168,0.164-0.25,0.332-0.25,0.582s0.082,0.418,0.25,0.582
		c0.168,0.168,0.332,0.25,0.582,0.25s0.418-0.082,0.582-0.25c0.168-0.168,0.25-0.418,0.25-0.582c0-0.25-0.082-0.418-0.25-0.582
		C20.167,35.582,19.667,35.582,19.335,35.918"/>
	<path clip-path="url(#SVGID_2_)" d="M27.667,36.75c-0.168,0.168-0.25,0.332-0.25,0.582s0.082,0.418,0.25,0.582
		c0.168,0.168,0.418,0.25,0.582,0.25c0.168,0,0.418-0.082,0.582-0.25c0.168-0.168,0.25-0.418,0.25-0.582
		c0-0.25-0.082-0.418-0.25-0.582C28.499,36.418,27.999,36.418,27.667,36.75"/>
	<path clip-path="url(#SVGID_2_)" d="M26.585,11.5c0.25,0,0.418-0.082,0.582-0.25c0.168-0.168,0.25-0.418,0.25-0.582
		c0-0.25-0.082-0.418-0.25-0.582c-0.332-0.332-0.832-0.332-1.168,0c-0.164,0.164-0.25,0.332-0.25,0.582s0.082,0.418,0.25,0.582
		C26.167,11.418,26.335,11.5,26.585,11.5"/>
	<path clip-path="url(#SVGID_2_)" d="M15.999,25.918c-0.164,0.164-0.25,0.332-0.25,0.582s0.082,0.418,0.25,0.582
		c0.168,0.168,0.332,0.25,0.582,0.25s0.418-0.082,0.582-0.25c0.168-0.168,0.25-0.418,0.25-0.582c0-0.168-0.082-0.418-0.25-0.582
		C16.835,25.582,16.335,25.582,15.999,25.918"/>
	<path clip-path="url(#SVGID_2_)" d="M18.835,19.25c-0.332-0.332-0.832-0.332-1.168,0c-0.168,0.168-0.25,0.332-0.25,0.582
		s0.082,0.418,0.25,0.582c0.168,0.168,0.332,0.25,0.582,0.25s0.418-0.082,0.582-0.25c0.168-0.168,0.25-0.418,0.25-0.582
		C19.085,19.582,18.999,19.418,18.835,19.25"/>
	<path clip-path="url(#SVGID_2_)" d="M10.999,21.75c-0.164,0.168-0.25,0.332-0.25,0.582s0.082,0.418,0.25,0.582
		c0.168,0.168,0.332,0.25,0.582,0.25s0.418-0.082,0.582-0.25c0.168-0.168,0.25-0.418,0.25-0.582c0-0.25-0.082-0.418-0.25-0.582
		C11.835,21.418,11.335,21.418,10.999,21.75"/>
	<path clip-path="url(#SVGID_2_)" d="M16.585,14c0.25,0,0.418-0.082,0.582-0.25c0.168-0.168,0.25-0.418,0.25-0.582
		c0-0.25-0.082-0.418-0.25-0.582c-0.332-0.332-0.832-0.332-1.168,0c-0.164,0.164-0.25,0.332-0.25,0.582s0.082,0.418,0.25,0.582
		C16.167,13.918,16.335,14,16.585,14"/>
	<path clip-path="url(#SVGID_2_)" d="M24.917,17.332c0.25,0,0.418-0.082,0.582-0.25c0.168-0.168,0.25-0.418,0.25-0.582
		c0-0.25-0.082-0.418-0.25-0.582c-0.332-0.332-0.918-0.332-1.168,0c-0.164,0.164-0.246,0.332-0.246,0.582s0.082,0.418,0.25,0.582
		C24.499,17.25,24.667,17.332,24.917,17.332"/>
	<path clip-path="url(#SVGID_2_)" d="M29.335,19.55c-1.717,0-3.391,0.682-4.713,1.92c-2.547,2.547-2.546,6.769,0.01,9.403
		c1.23,1.23,2.901,1.91,4.703,1.91c1.717,0,3.391-0.682,4.713-1.919c1.225-1.227,1.905-2.898,1.905-4.7
		c0-1.716-0.682-3.39-1.919-4.713C32.724,20.231,31.05,19.55,29.335,19.55 M33.288,30.139c-1.067,1.068-2.475,1.661-3.953,1.661
		c-1.479,0-2.886-0.593-3.962-1.67c-1.079-1.078-1.665-2.502-1.649-4.007c0.014-1.465,0.602-2.829,1.653-3.839
		c1.072-1.073,2.479-1.666,3.958-1.666c1.478,0,2.886,0.593,3.962,1.67c1.077,1.077,1.67,2.484,1.67,3.962
		C34.967,27.743,34.354,29.16,33.288,30.139"/>
	<path clip-path="url(#SVGID_2_)" d="M29.585,26.168c-0.418,0.418-1.168,0.418-1.582,0c-0.418-0.418-0.418-1.168,0-1.582
		c0.25-0.25,0.5-0.332,0.832-0.332s0.582,0.082,0.832,0.332s0.332,0.5,0.332,0.832C29.999,25.754,29.835,25.918,29.585,26.168
		 M26.749,23.332c-1.082,1.082-1.082,2.918,0,4c0.5,0.5,1.25,0.832,2,0.832s1.5-0.332,2-0.832s0.832-1.25,0.832-2
		s-0.332-1.5-0.832-2C29.667,22.332,27.835,22.332,26.749,23.332"/>
	<path clip-path="url(#SVGID_2_)" d="M48.577,24.459c0.145-0.052,0.251-0.143,0.308-0.265c0.058-0.125,0.059-0.276,0.004-0.413
		c-0.097-0.242-0.424-0.357-0.694-0.252c-0.041,0.019-1.327,0.594-2.622,0.594c-0.67,0-1.228-0.155-1.661-0.46l-0.121-0.085
		l-0.006-0.148c-0.085-2.066-0.432-3.918-1.064-5.66l-0.135-0.371l0.394-0.03c2.045-0.152,3.774-1.949,3.933-2.186
		c0.262-0.275,0.167-0.597-0.037-0.804c-0.19-0.19-0.513-0.145-0.744,0.085c-0.066,0.068-1.757,1.809-3.42,1.809
		c-0.184,0-0.362-0.022-0.531-0.064l-0.142-0.035l-0.06-0.133c-0.685-1.525-1.625-3.001-2.875-4.514l-0.241-0.29l0.338-0.169
		c1.765-0.883,2.681-3.144,2.758-3.455c0.062-0.171,0.057-0.305,0.001-0.433c-0.062-0.144-0.18-0.261-0.316-0.315
		c-0.26-0.105-0.59,0.066-0.694,0.331c-0.234,0.704-1.281,2.819-2.895,3.104l-0.148,0.026l-0.109-0.103
		c-1.514-1.422-3.086-2.525-4.674-3.28L32.761,6.77l0.269-0.299c1.248-1.387,1.347-3.728,1.284-4.224l-0.029-0.029V2.09
		c0-0.305-0.25-0.501-0.569-0.454c-0.202,0.004-0.335,0.063-0.422,0.169c-0.074,0.09-0.104,0.202-0.083,0.309
		c0.006,0.588-0.07,3.271-1.57,4.073L31.52,6.251l-0.128-0.049c-1.786-0.681-3.604-1.068-5.407-1.148l-0.372-0.017l0.096-0.36
		c0.519-1.952,0.366-3.502-0.441-4.482c-0.196-0.193-0.528-0.257-0.725-0.061c-0.199,0.199-0.309,0.517-0.082,0.744
		c0.9,0.993,0.58,2.709,0.154,3.976L24.55,5.05l-0.207,0.008c-1.986,0.081-3.865,0.412-5.585,0.985l-0.37,0.123l-0.024-0.389
		c-0.057-0.917-0.382-3.15-2.172-4.085c-0.293-0.175-0.569-0.063-0.664,0.177c-0.099,0.172-0.117,0.314-0.073,0.443
		c0.039,0.116,0.123,0.204,0.236,0.249c0.976,0.485,1.521,1.71,1.689,3.755l0.017,0.21l-0.192,0.087
		c-1.793,0.814-3.45,1.892-4.925,3.201l-0.293,0.26l-0.174-0.35c-0.525-1.053-1.689-2.843-3.589-3.003
		C7.866,6.722,7.676,6.986,7.625,7.233C7.579,7.468,7.87,7.74,8.142,7.796c1.009,0.059,2.018,1.04,2.957,2.909l0.091,0.181
		l-0.134,0.152c-1.334,1.513-2.353,2.978-3.209,4.609l-0.173,0.329l-0.285-0.238c-1.688-1.405-3.233-1.901-4.541-1.447
		c-0.228,0.092-0.44,0.329-0.315,0.703c0.113,0.279,0.394,0.414,0.702,0.312c0.203-0.064,0.414-0.095,0.634-0.095
		c1.506,0,3.048,1.456,3.341,1.748l0.137,0.135l-0.066,0.181c-0.757,2.075-1.159,3.981-1.232,5.827l-0.018,0.446l-0.406-0.185
		c-0.591-0.269-1.669-0.583-2.766-0.583c-1.018,0-1.86,0.267-2.502,0.792c-0.177,0.179-0.287,0.497-0.06,0.724
		c0.148,0.148,0.328,0.244,0.456,0.244c0.097,0,0.25-0.052,0.291-0.083c0.458-0.393,1.058-0.586,1.797-0.586
		c1.151,0,2.293,0.466,2.616,0.609c0.11,0.052,0.229,0.052,0.292,0.052h0.288l0.012,0.288c0.086,2.009,0.443,3.856,1.062,5.488
		l0.155,0.406H6.831c-0.846,0-3.687,0.156-4.734,2.171c-0.086,0.144-0.104,0.286-0.06,0.416c0.039,0.115,0.123,0.203,0.236,0.248
		l0.102,0.067c0.009-0.005,0.132-0.005,0.206-0.005c0.205,0,0.374-0.096,0.501-0.286c0.776-1.552,3.536-1.632,4.081-1.632
		c0.054,0,0.122,0,0.141-0.005l0.301-0.301l0.161,0.394c0.859,1.806,1.852,3.337,3.036,4.681l0.259,0.293l-0.35,0.174
		c-1.053,0.524-2.843,1.688-3.003,3.589c0.001,0.256,0.235,0.542,0.512,0.598l0.021-0.005c0.274,0,0.532-0.219,0.532-0.451
		c0.065-1.069,1.046-2.078,2.915-3.017l0.187-0.095l0.153,0.144c1.328,1.246,2.873,2.295,4.593,3.116l0.347,0.166l-0.246,0.296
		c-0.744,0.895-1.911,2.654-1.363,4.385c0.056,0.224,0.283,0.374,0.546,0.374h0.186c0.22-0.109,0.397-0.338,0.28-0.687
		c-0.34-1.016,0.171-2.328,1.478-3.795l0.137-0.155l0.194,0.074c1.698,0.648,3.578,1.063,5.586,1.231l0.362,0.031l-0.098,0.349
		c-0.564,2.016,0.55,4.345,0.562,4.368c0.149,0.295,0.336,0.334,0.481,0.334c0.029,0,0.115,0,0.145-0.013l0.075-0.048
		c0.271-0.109,0.35-0.446,0.251-0.693c-0.368-0.739-0.954-2.831-0.231-4.092l0.083-0.144l0.165-0.007
		c1.906-0.081,3.807-0.421,5.5-0.985l0.364-0.121l0.029,0.383c0.13,1.679,1.433,3.183,2.196,3.931c0.172,0.17,0.262,0.21,0.419,0.21
		c0.159,0,0.251-0.04,0.368-0.16c0.218-0.218,0.124-0.54-0.081-0.747c-0.08-0.073-2.192-2.043-1.831-3.851l0.03-0.148l0.135-0.064
		c1.753-0.834,3.314-1.829,4.769-3.042l0.286-0.239l0.172,0.33c0.888,1.702,3.17,2.684,3.464,2.764
		c0.048-0.01,0.138,0.036,0.195,0.065c0.184-0.014,0.405-0.152,0.452-0.344c0.059-0.154,0.054-0.288-0.002-0.416
		c-0.061-0.144-0.179-0.261-0.316-0.315c-0.704-0.234-2.819-1.281-3.105-2.895L38.58,36.99l0.103-0.109
		c1.311-1.395,2.386-2.968,3.198-4.674l0.158-0.334l0.294,0.225c1.514,1.155,3.737,1.188,3.986,1.188h0.25
		c0.145,0,0.271-0.054,0.354-0.153c0.092-0.106,0.127-0.255,0.1-0.416c-0.003-0.359-0.253-0.555-0.573-0.503l-0.139,0.005
		c-0.654,0-2.863-0.099-3.818-1.371l-0.1-0.135l0.062-0.156c0.594-1.485,0.959-3.179,1.148-5.333l0.033-0.379l0.361,0.121
		c1.756,0.59,3.752-0.183,4.365-0.429C48.472,24.493,48.53,24.469,48.577,24.459 M24.917,41.8c-9.815,0-17.8-7.984-17.8-17.8
		c0-9.815,7.985-17.8,17.8-17.8s17.8,7.985,17.8,17.8C42.717,33.816,34.732,41.8,24.917,41.8"/>
</g>
</svg>
